<?xml version="1.0" encoding="utf-8"?>
<!-- Generator: Adobe Illustrator 23.0.1, SVG Export Plug-In . SVG Version: 6.00 Build 0)  -->
<svg version="1.1" id="Layer_1" xmlns="http://www.w3.org/2000/svg" xmlns:xlink="http://www.w3.org/1999/xlink" x="0px" y="0px"
	 viewBox="0 0 100 100" style="enable-background:new 0 0 100 100;" xml:space="preserve">
<style type="text/css">
	.st0{fill:#46A91B;}
</style>
<path class="st0" d="M43.5,100.5c-2.72-5.77-5.51-14.26-3-23c2.17-7.53,6.43-8.83,9-16c5.43-15.13-5.93-30.6-5-31
	c0.95-0.41,14.14,15.17,11,32c-1.34,7.16-4.63,9.51-5,17c-0.44,8.86,3.63,16.26,7,21"/>
<path class="st0" d="M21.5,56.5"/>
<path class="st0" d="M50.43,70.55c1.59-0.37,2.68-1.58,2.51-2.81c-0.43-3.11-8.91-6.06-13.77-7.23c-8.73-2.11-17.54-1.37-17.46-0.09
	c0.06,1.06,6.12,1.21,15.99,5.51C44.09,68.71,47.49,71.23,50.43,70.55z"/>
<path class="st0" d="M53.96,53.43c-1.22-0.02-2.25-0.77-2.37-1.73c-0.3-2.43,5.24-6.03,8.51-7.7c5.88-3,12.39-3.85,12.58-2.86
	c0.16,0.82-4.18,1.9-10.45,6.74C58.17,51.01,56.21,53.47,53.96,53.43z"/>
<path class="st0" d="M9.43,46.28c1.35,0.21,2.74,0.22,3.18,0.23c2.39,0.06,3.25-0.2,5.76,0.39c2.79,0.66,4.2,1.53,5.16,2.37
	c0.7,0.61,2.75,2.39,2.26,4.01c-0.48,1.58-3.11,2.04-4.16,2.22c-2.86,0.5-5.19-0.32-7.68-1.2c-3.13-1.11-5.26-2.49-6.14-3.1
	c-0.66-0.46-1.94-1.7-4.5-4.16c-0.07-0.07-1.31-1.27-1.08-1.58c0.14-0.19,0.85-0.11,0.87-0.11c0,0,0,0,0,0c0,0,0,0,0,0
	C3.44,45.34,9.43,46.28,9.43,46.28z"/>
<path class="st0" d="M21.02,22.11c1.15,0.83,2.42,1.48,2.83,1.69c2.17,1.17,3.09,1.32,5.13,3.04c2.27,1.91,3.16,3.38,3.66,4.61
	c0.36,0.89,1.42,3.51,0.22,4.79c-1.18,1.25-3.82,0.46-4.88,0.14c-2.88-0.86-4.64-2.71-6.53-4.69c-2.37-2.49-3.69-4.77-4.22-5.75
	c-0.4-0.74-1-2.48-2.21-5.97c-0.04-0.1-0.61-1.8-0.26-1.98c0.21-0.11,0.84,0.29,0.86,0.31c0,0,0,0,0,0c0,0,0,0,0,0
	C15.93,18.45,21.02,22.11,21.02,22.11z"/>
<path class="st0" d="M50.17,9.37c0.27,1.34,0.75,2.64,0.89,3.07c0.77,2.26,1.32,2.98,1.63,5.53c0.35,2.85,0.03,4.47-0.42,5.66
	c-0.33,0.87-1.29,3.41-2.97,3.51c-1.65,0.1-2.99-2.21-3.53-3.13c-1.47-2.51-1.5-4.97-1.54-7.62c-0.05-3.32,0.51-5.8,0.78-6.84
	c0.2-0.78,0.92-2.41,2.34-5.66c0.04-0.1,0.74-1.67,1.11-1.56c0.22,0.06,0.4,0.76,0.4,0.78c0,0,0,0,0,0c0,0,0,0,0,0
	C48.97,3.42,50.17,9.37,50.17,9.37z"/>
<path class="st0" d="M78.31,20.37c-1.2,0.66-2.5,1.14-2.92,1.3c-2.22,0.87-3.12,0.91-5.28,2.32c-2.4,1.57-3.43,2.86-4.05,3.98
	c-0.45,0.81-1.78,3.19-0.77,4.54c0.99,1.32,3.61,0.86,4.67,0.68c2.86-0.5,4.77-2.06,6.82-3.74c2.57-2.11,4.1-4.13,4.72-5
	c0.47-0.66,1.25-2.25,2.82-5.44c0.05-0.09,0.8-1.64,0.48-1.85c-0.19-0.13-0.84,0.19-0.86,0.2c0,0,0,0,0,0c0,0,0,0,0,0
	C83.64,17.45,78.31,20.37,78.31,20.37z"/>
<path class="st0" d="M88.98,48.04c-1.35,0.19-2.74,0.18-3.19,0.18c-2.39,0.02-3.24-0.25-5.76,0.3c-2.8,0.61-4.22,1.46-5.2,2.28
	c-0.71,0.6-2.79,2.35-2.33,3.97c0.46,1.58,3.07,2.09,4.12,2.29c2.86,0.55,5.19-0.24,7.7-1.08c3.15-1.06,5.3-2.4,6.19-3
	c0.67-0.45,1.97-1.66,4.56-4.09c0.08-0.07,1.33-1.25,1.1-1.56c-0.13-0.19-0.85-0.12-0.87-0.12c0,0,0,0,0,0c0,0,0,0,0,0
	C94.99,47.19,88.98,48.04,88.98,48.04z"/>
</svg>
